<svg height="510pt" viewBox="0 -11 510.171 510" width="510pt" xmlns="http://www.w3.org/2000/svg"><path d="m502.503906 14.824219h-57.210937v-7.246094c0-4.140625-3.355469-7.4960938-7.496094-7.4960938h-47.648437c-4.144532 0-7.5 3.3554688-7.5 7.4960938v7.246094h-96.324219v-7.246094c0-4.140625-3.359375-7.4960938-7.5-7.4960938h-47.648438c-4.140625 0-7.496093 3.3554688-7.496093 7.4960938v7.246094h-96.328126v-7.246094c0-4.140625-3.355468-7.4960938-7.496093-7.4960938h-47.652344c-4.140625 0-7.496094 3.3554688-7.496094 7.4960938v7.246094h-57.210937c-4.140625 0-7.496094 3.359375-7.496094 7.5v27.175781c0 4.140625 3.355469 7.5 7.496094 7.5h57.210937v144.65625c0 4.140625 3.355469 7.496094 7.496094 7.496094s7.5-3.355469 7.5-7.496094v-121.808594h350.59375v242.996094c0 4.140625 3.355469 7.496094 7.496094 7.496094 4.144531 0 7.5-3.355469 7.5-7.496094v-265.84375h57.207031c4.144531 0 7.5-3.359375 7.5-7.5v-27.175781c0-4.140625-3.355469-7.5-7.496094-7.5zm-216.183594 42.175781h96.328126v7.855469h-96.328126zm96.328126-27.179688v12.183594h-96.324219v-12.183594zm-255.296876 27.179688h96.328126v7.855469h-96.328126zm96.328126-27.179688v12.183594h-96.328126v-12.183594zm-208.683594 12.183594v-12.183594h49.710937v12.183594zm64.707031 22.851563v-49.777344h32.652344v49.777344zm158.96875 0v-49.777344h32.65625v49.777344zm158.972656 0v-49.777344h32.652344v49.777344zm97.359375-22.851563h-49.710937v-12.183594h49.710937zm0 0"/><path d="m437.796875 345.335938c-4.144531 0-7.5 3.355468-7.5 7.496093v121.15625h-350.59375v-242.34375c0-4.140625-3.359375-7.496093-7.5-7.496093s-7.496094 3.355468-7.496094 7.496093v249.84375c0 4.140625 3.355469 7.496094 7.496094 7.496094h365.589844c4.144531 0 7.5-3.355469 7.5-7.496094v-128.65625c0-4.140625-3.355469-7.496093-7.496094-7.496093zm0 0"/><path d="m375.433594 147.289062-26.230469-20.007812c-1.582031-1.207031-3.578125-1.734375-5.546875-1.472656-1.972656.265625-3.757812 1.304687-4.960938 2.886718l-42.269531 55.414063-32.09375-41.65625c-1.421875-1.84375-3.613281-2.921875-5.941406-2.921875-2.324219 0-4.519531 1.078125-5.9375 2.921875l-32.097656 41.65625-42.265625-55.414063c-1.207032-1.582031-2.992188-2.617187-4.960938-2.882812-1.972656-.265625-3.96875.261719-5.546875 1.46875l-26.234375 20.007812c-3.292968 2.511719-3.925781 7.214844-1.414062 10.507813l50.09375 65.675781-35.519532 46.101563c-2.078124 2.699219-2.078124 6.457031 0 9.152343l35.050782 45.492188-42.84375 56.171875c-1.203125 1.578125-1.734375 3.574219-1.46875 5.546875.265625 1.96875 1.300781 3.753906 2.882812 4.960938l26.234375 20.007812c1.3125 1 2.914063 1.535156 4.546875 1.535156.332032 0 .667969-.019531 1-.066406 1.96875-.265625 3.753906-1.300781 4.960938-2.882812l35.015625-45.910157 32.566406 42.269531c1.417969 1.839844 3.613281 2.917969 5.9375 2.917969s4.519531-1.078125 5.9375-2.917969l32.566406-42.265624 35.015625 45.90625c1.472656 1.933593 3.707032 2.949218 5.964844 2.949218 1.585938 0 3.183594-.5 4.542969-1.535156l26.234375-20.007812c1.578125-1.207032 2.617187-2.992188 2.882812-4.960938.265625-1.972656-.265625-3.96875-1.472656-5.546875l-42.839844-56.171875 35.050782-45.492188c2.074218-2.695312 2.074218-6.457031 0-9.152343l-35.519532-46.101563 50.09375-65.675781c2.511719-3.292969 1.878906-7.996094-1.414062-10.507813zm-219.03125 7.375 14.3125-10.914062 40.164062 52.660156-11.375 14.761719zm21.09375 239.769532-14.308594-10.914063 35.847656-47.003906 11.375 14.765625zm176.101562-10.914063-14.3125 10.914063-32.914062-43.152344 11.375-14.761719zm-95.207031 5.46875-88.476563-114.835937 88.476563-114.839844 88.480469 114.839844zm58.886719-177.816406-11.375-14.761719 40.167968-52.660156 14.308594 10.914062zm0 0"/><path d="m252.453125 196.980469-55.929687 72.59375c-2.078126 2.695312-2.078126 6.457031 0 9.152343l55.929687 72.59375c1.417969 1.839844 3.613281 2.917969 5.9375 2.917969 2.328125 0 4.519531-1.078125 5.941406-2.917969l55.929688-72.59375c2.078125-2.699218 2.078125-6.457031 0-9.152343l-55.929688-72.59375c-1.421875-1.839844-3.613281-2.921875-5.941406-2.921875-2.324219 0-4.519531 1.082031-5.9375 2.921875zm52.402344 77.171875-46.464844 60.308594-46.464844-60.308594 46.464844-60.308594zm0 0"/></svg>